<?xml version="1.0" encoding="utf-8"?>
<!-- Generator: Adobe Illustrator 18.0.0, SVG Export Plug-In . SVG Version: 6.00 Build 0)  -->
<!DOCTYPE svg PUBLIC "-//W3C//DTD SVG 1.1//EN" "http://www.w3.org/Graphics/SVG/1.1/DTD/svg11.dtd">
<svg version="1.1" id="Layer_1" xmlns="http://www.w3.org/2000/svg" xmlns:xlink="http://www.w3.org/1999/xlink" x="0px" y="0px"
	 viewBox="0 0 640 480" enable-background="new 0 0 640 480" xml:space="preserve">
<g id="ecotechnoauto">
	<polygon fill="#686868" points="321,317 393,281 321,245 249,281 	"/>
	<polygon fill="#4D4D4D" points="321,295.2 349.3,281 321,266.8 292.7,281 	"/>
	<polygon fill="#224099" points="393,200 393,281 321,245 321,164 	"/>
	<polygon fill="#00AD4E" points="321,245 249,281 249,200 321,164 	"/>
</g>
<g id="hut">
	<polygon fill="#FFFFFF" points="321,252 293,238 293,265 321,279 	"/>
	<polygon fill="#FFFFFF" points="321,252 349,238 349,265 321,279 	"/>
	<polygon fill="#E6E6E6" points="321,213 285.8,238.2 321,257 	"/>
	<polygon fill="#F2F2F2" points="321,257 321,213 356.2,238.3 	"/>
</g>
</svg>
