<?xml version="1.0" encoding="utf-8"?>
<!-- Generator: Adobe Illustrator 18.0.0, SVG Export Plug-In . SVG Version: 6.00 Build 0)  -->
<!DOCTYPE svg PUBLIC "-//W3C//DTD SVG 1.1//EN" "http://www.w3.org/Graphics/SVG/1.1/DTD/svg11.dtd">
<svg version="1.1" id="the-build-2-house" xmlns="http://www.w3.org/2000/svg" xmlns:xlink="http://www.w3.org/1999/xlink" x="0px"
	 y="0px" viewBox="0 0 800 800" enable-background="new 0 0 800 800" xml:space="preserve">
<rect id="alt-green-bg" x="-1" y="-1" fill="#00ED7C" width="800" height="800"/>
<g id="hut">
	<polygon fill="#E0E0E0" points="383.5,373.6 366.1,397.5 401.1,380 	"/>
	<polygon fill="#CCCCCC" points="366.2,431.2 401.2,413.8 436.2,431.2 401.2,448.8 	"/>
	<path fill="#FFFFFF" d="M401.2,415l-35-17.5v33.8l35,17.5V415z M389.8,433.1l-12-6v-12l12,6V433.1z"/>
	<path fill="#E0E0E0" d="M436.2,397.5l-35-17.5v33.8l35,17.5V397.5z M424.8,415.6l-12-6v-12l12,6V415.6z"/>
	<polygon opacity="0.5" fill="#FFFFFF" enable-background="new    " points="418.6,391 383.6,373.6 366.2,397.5 401.2,415 	"/>
	<polygon opacity="0.5" fill="#E0E0E0" enable-background="new    " points="418.6,391 436.2,397.5 401.2,380 383.6,373.6 	"/>
	<polygon fill="#E0E0E0" points="418.6,391 401.2,415 436.2,397.5 	"/>
</g>
</svg>
